:version 1.10
:name ASF
:units
  mass 1
  length 1
  angle deg
:documentation
  ASF file generated by Kaydara
:root
  axis xyz
  order  tx ty tz rx ry rz
  position 0 0 0
  orientation 0 0 0
:bonedata
  begin
    id 1
    name lfemurDummy
    direction 0.61522 -0.761478 0.204097
    length 5.68318
    axis 0 -0 0 xyz
  end
  begin
    id 2
    name lfemur
    direction 0.34202 -0.939693 -5.84747e-008
    length 16.9147
    axis 0 -0 20 xyz
    dof rx ry rz
    limits( -inf , inf )
( -inf , inf )
( -inf , inf )

  end
  begin
    id 3
    name ltibia
    direction 0.34202 -0.939693 1.20839e-009
    length 18.0532
    axis 0 -0 20 xyz
    dof rz ry rx
    limits( -inf , inf )
( -inf , inf )
( -inf , inf )

  end
  begin
    id 4
    name lfoot
    direction 0.0841971 -0.23133 0.969225
    length 5.23822
    axis -90 7.62852e-016 20 xyz
    dof ry rx rz
    limits( -inf , inf )
( -inf , inf )
( -inf , inf )

  end
  begin
    id 5
    name ltoes
    direction 0 0 0
    length 0
    axis 0 0 0 xyz
    dof rz ry rx
    limits( -inf , inf )
( -inf , inf )
( -inf , inf )

  end
  begin
    id 6
    name rfemurDummy
    direction -0.625247 -0.75382 0.202044
    length 5.74091
    axis 0 -0 0 xyz
  end
  begin
    id 7
    name rfemur
    direction -0.34202 -0.939693 -1.47013e-008
    length 16.4922
    axis 0 -0 -20 xyz
    dof rx ry rz
    limits( -inf , inf )
( -inf , inf )
( -inf , inf )

  end
  begin
    id 8
    name rtibia
    direction -0.34202 -0.939693 -7.74345e-010
    length 18.2421
    axis 0 -0 -20 xyz
    dof rz ry rx
    limits( -inf , inf )
( -inf , inf )
( -inf , inf )

  end
  begin
    id 9
    name rfoot
    direction -0.124331 -0.341598 0.931586
    length 5.45787
    axis -90 -7.62852e-016 -20 xyz
    dof ry rx rz
    limits( -inf , inf )
( -inf , inf )
( -inf , inf )

  end
  begin
    id 10
    name rtoes
    direction 0 0 0
    length 0
    axis 0 0 0 xyz
    dof rz ry rx
    limits( -inf , inf )
( -inf , inf )
( -inf , inf )

  end
  begin
    id 11
    name lowerbackDummy
    direction 0 0 0
    length 0
    axis 0 -0 0 xyz
  end
  begin
    id 12
    name lowerback
    direction -0.0218484 0.994884 -0.0986304
    length 4.45607
    axis 0 -0 0 xyz
    dof rx ry rz
    limits( -inf , inf )
( -inf , inf )
( -inf , inf )

  end
  begin
    id 13
    name upperback
    direction -0.00973057 0.999717 -0.0217111
    length 4.47449
    axis 0 -0 0 xyz
    dof rx ry rz
    limits( -inf , inf )
( -inf , inf )
( -inf , inf )

  end
  begin
    id 14
    name thorax
    direction -0.000928171 0.999699 0.0245198
    length 4.50973
    axis 0 -0 0 xyz
    dof rx ry rz
    limits( -inf , inf )
( -inf , inf )
( -inf , inf )

  end
  begin
    id 15
    name rclavicle
    direction -0.9009 0.425937 -0.0834055
    length 7.28587
    axis 0 -0 0 xyz
    dof rx ry rz
    limits( -inf , inf )
( -inf , inf )
( -inf , inf )

  end
  begin
    id 16
    name rhumerus
    direction -1 -2.23604e-007 -1.42637e-007
    length 13.5704
    axis 180 30 90 xyz
    dof rx ry rz
    limits( -inf , inf )
( -inf , inf )
( -inf , inf )

  end
  begin
    id 17
    name rradius
    direction -1 5.68281e-008 -4.4952e-007
    length 8.06782
    axis 180 30 90 xyz
    dof rz ry rx
    limits( -inf , inf )
( -inf , inf )
( -inf , inf )

  end
  begin
    id 18
    name rwrist
    direction -1 1.51393e-007 1.38143e-007
    length 4.03391
    axis -90 -90 0 xyz
    dof rz rx ry
    limits( -inf , inf )
( -inf , inf )
( -inf , inf )

  end
  begin
    id 19
    name rthumb
    direction 0 0 0
    length 0
    axis 0 0 0 xyz
    dof ry rx rz
    limits( -inf , inf )
( -inf , inf )
( -inf , inf )

  end
  begin
    id 20
    name rhand
    direction -1 -3.34077e-007 -5.59631e-007
    length 1.29744
    axis -90 -90 0 xyz
    dof ry rx rz
    limits( -inf , inf )
( -inf , inf )
( -inf , inf )

  end
  begin
    id 21
    name rfingers
    direction 0 0 0
    length 0
    axis 0 0 0 xyz
    dof rz ry rx
    limits( -inf , inf )
( -inf , inf )
( -inf , inf )

  end
  begin
    id 22
    name lclavicle
    direction 0.940017 0.332249 -0.0773232
    length 8.29589
    axis 0 -0 0 xyz
    dof rx ry rz
    limits( -inf , inf )
( -inf , inf )
( -inf , inf )

  end
  begin
    id 23
    name lhumerus
    direction 1 7.41158e-008 -1.44768e-008
    length 12.0042
    axis 180 -30 -90 xyz
    dof rx ry rz
    limits( -inf , inf )
( -inf , inf )
( -inf , inf )

  end
  begin
    id 24
    name lradius
    direction 1 -1.32972e-007 3.10821e-007
    length 8.1902
    axis 180 -30 -90 xyz
    dof rz ry rx
    limits( -inf , inf )
( -inf , inf )
( -inf , inf )

  end
  begin
    id 25
    name lwrist
    direction 1 3.08957e-007 4.01394e-007
    length 4.09509
    axis -90 90 0 xyz
    dof rz rx ry
    limits( -inf , inf )
( -inf , inf )
( -inf , inf )

  end
  begin
    id 26
    name lthumb
    direction 0 0 0
    length 0
    axis 0 0 0 xyz
    dof ry rx rz
    limits( -inf , inf )
( -inf , inf )
( -inf , inf )

  end
  begin
    id 27
    name lhand
    direction 1 -1.64125e-007 -6.99514e-007
    length 1.37229
    axis -90 90 0 xyz
    dof ry rx rz
    limits( -inf , inf )
( -inf , inf )
( -inf , inf )

  end
  begin
    id 28
    name lfingers
    direction 0 0 0
    length 0
    axis 0 0 0 xyz
    dof rz ry rx
    limits( -inf , inf )
( -inf , inf )
( -inf , inf )

  end
  begin
    id 29
    name lowerneck
    direction -0.030798 0.998024 0.0547665
    length 3.93918
    axis 0 -0 0 xyz
    dof rx ry rz
    limits( -inf , inf )
( -inf , inf )
( -inf , inf )

  end
  begin
    id 30
    name upperneck
    direction 0.0531588 0.996611 -0.0627736
    length 3.95491
    axis 0 -0 0 xyz
    dof rx ry rz
    limits( -inf , inf )
( -inf , inf )
( -inf , inf )

  end
  begin
    id 31
    name head
    direction 0 0 0
    length 0
    axis 0 0 0 xyz
    dof rx ry rz
    limits( -inf , inf )
( -inf , inf )
( -inf , inf )

  end
:hierarchy
  begin
    root lfemurDummy rfemurDummy lowerbackDummy
    lfemurDummy lfemur
    lfemur ltibia
    ltibia lfoot
    lfoot ltoes
    rfemurDummy rfemur
    rfemur rtibia
    rtibia rfoot
    rfoot rtoes
    lowerbackDummy lowerback
    lowerback upperback
    upperback thorax
    thorax rclavicle lclavicle lowerneck
    rclavicle rhumerus
    rhumerus rradius
    rradius rwrist
    rwrist rthumb rhand
    rhand rfingers
    lclavicle lhumerus
    lhumerus lradius
    lradius lwrist
    lwrist lthumb lhand
    lhand lfingers
    lowerneck upperneck
    upperneck head
  end

:SAMPLES-PER-SECOND 30
:FULLY-SPECIFIED
:DEGREES
1
root  11.11366692 36.96244307 -7.134533679 -15.11060047 -49.55609894 11.94659996
lowerback  12.25879955 1.89052999 -3.077120066
upperback  4.072979927 2.077369928 0.6472859979
thorax  -2.733930111 0.9898430109 2.118390083
lowerneck  -3.418859959 5.392419815 -4.022099972
upperneck  6.403999805 7.008679867 6.668529987
head  2.246370077 3.584959984 3.061690092
lclavicle  0 -9.442270133e-015 7.951389973e-016
lhumerus  10.69229984 -3.310640097 63.47489929
lradius  2.606788151e-031 -2.381910908e-031 137.5809937
lwrist  -7.062250077e-031 -0 14.64970016
lhand  -1.496451383e-031 -27.76390076 20.11240005
lfingers  90 7.125020027 -90
lthumb  89.89689403 5.08795885 91.16245106
rclavicle  0 -9.442270133e-015 7.951389973e-016
rhumerus  6.11097002 14.23579979 -71.94779968
rradius  -2.765020944e-031 2.196247531e-031 141.5399933
rwrist  7.062250077e-031 1.765562519e-031 -21.61639977
rhand  -7.920061211e-032 -33.2840004 9.303460121
rfingers  -90 -7.125020027 -90
rthumb  -92.93752616 -24.25625642 -97.11982154
rfemur  -12.39229965 16.73970032 0.3089840114
rtibia  -0 0 65.51119995
rfoot  -0 -27.25270081 -10.06610012
rtoes  5.373923086 19.29304026 -105.8922705
lfemur  -23.30279922 4.730549812 -12.49510002
ltibia  -0 0 58.82249832
lfoot  4.653374205e-032 -18.46109962 -2.266220093
ltoes  -4.250644065 -19.5611806 -102.515957
2
root  11.10788856 36.90044373 -7.234022186 -14.6807003 -49.57189941 11.37349987
lowerback  12.09220028 1.921499968 -2.691400051
upperback  4.134109974 2.168960094 0.6472859979
thorax  -2.571589947 1.033419967 1.884119987
lowerneck  -2.946729898 5.35311985 -4.071040154
upperneck  6.233409882 6.952199936 6.664790154
head  2.10532999 3.548069954 3.041130066
lclavicle  0 -9.442270133e-015 7.951389973e-016
lhumerus  11.93089962 -3.573139906 63.37279892
lradius  2.605124908e-031 -2.383729903e-031 137.5410004
lwrist  -7.062250077e-031 -0 14.68299961
lhand  -1.496451383e-031 -27.76390076 20.11240005
lfingers  90 7.125020027 -90
lthumb  89.89689403 5.08795885 91.16245106
rclavicle  0 -9.442270133e-015 7.951389973e-016
rhumerus  6.33122015 14.10239983 -72.18560028
rradius  -2.775797457e-031 2.182611399e-031 141.8220062
rwrist  0 8.827812596e-032 -22.20120049
rhand  -7.920061211e-032 -33.2840004 9.303460121
rfingers  -90 -7.125020027 -90
rthumb  -92.93752616 -24.25625642 -97.11982154
rfemur  -12.71310043 16.17539978 0.9499880075
rtibia  -0 0 66.04560089
rfoot  -0 -27.46719933 -10.88980007
rtoes  5.373923086 19.29304026 -105.8922705
lfemur  -23.48310089 4.241799831 -11.91469955
ltibia  -0 0 58.94520187
lfoot  4.650714626e-032 -18.36269951 -2.363859892
ltoes  -4.250644065 -19.5611806 -102.515957
3
root  11.09675535 36.87977828 -7.346000071 -14.53439999 -49.48910141 11.14220047
lowerback  12.02659988 1.914829969 -2.608040094
upperback  4.161630154 2.172250032 0.6596059799
thorax  -2.504980087 1.034160018 1.851809978
lowerneck  -2.460479975 5.389389992 -4.447299957
upperneck  6.204850197 6.999660015 6.778319836
head  1.988700032 3.558670044 3.125119925
lclavicle  0 -9.442270133e-015 7.951389973e-016
lhumerus  12.82250023 -3.728169918 63.47230148
lradius  2.602502138e-031 -2.386593107e-031 137.4779968
lwrist  -7.062250077e-031 -1.765562519e-031 14.81470013
lhand  -1.496451383e-031 -27.76390076 20.11240005
lfingers  90 7.125020027 -90
lthumb  89.89689403 5.08795885 91.16245106
rclavicle  0 -9.442270133e-015 7.951389973e-016
rhumerus  6.639180183 14.22019958 -72.3635025
rradius  -2.782298737e-031 2.174317773e-031 141.9929962
rwrist  1.412450015e-030 1.765562519e-031 -22.94560051
rhand  -7.920061211e-032 -33.2840004 9.303460121
rfingers  -90 -7.125020027 -90
rthumb  -92.93752616 -24.25625642 -97.11982154
rfemur  -12.94649982 15.52649975 1.292260051
rtibia  -0 0 66.47579956
rfoot  -0 -27.32089996 -11.69569969
rtoes  5.373923086 19.29304026 -105.8922705
lfemur  -23.52249908 3.346869946 -11.54469967
ltibia  -0 0 58.7981987
lfoot  4.644998944e-032 -18.14909935 -2.825920105
ltoes  -4.250644065 -19.5611806 -102.515957
4
root  11.07684458 36.88355694 -7.476021924 -14.52630043 -49.36149979 11.06840038
lowerback  12.03499985 1.954190016 -2.73645997
upperback  4.195280075 2.208810091 0.6564390063
thorax  -2.480720043 1.050999999 1.915889978
lowerneck  -2.110780001 5.387159824 -4.752250195
upperneck  6.41065979 6.983880043 6.875100136
head  1.980939984 3.540750027 3.204619884
lclavicle  0 -9.442270133e-015 7.951389973e-016
lhumerus  13.62339973 -4.012479782 63.70410156
lradius  2.594364901e-031 -2.395436244e-031 137.2830048
lwrist  -7.062250077e-031 -0 14.85890007
lhand  -1.496451383e-031 -27.76390076 20.11240005
lfingers  90 7.125020027 -90
lthumb  89.89689403 5.08795885 91.16245106
rclavicle  0 -9.442270133e-015 7.951389973e-016
rhumerus  6.993559837 14.24300003 -72.57099915
rradius  -2.788321778e-031 2.166588493e-031 142.1519928
rwrist  1.412450015e-030 8.827812596e-032 -23.6602993
rhand  -7.920061211e-032 -33.2840004 9.303460121
rfingers  -90 -7.125020027 -90
rthumb  -92.93752616 -24.25625642 -97.11982154
rfemur  -13.13519955 14.97179985 1.556660056
rtibia  -0 0 66.79989624
rfoot  -0 -27.25130081 -12.44410038
rtoes  5.373923086 19.29304026 -105.8922705
lfemur  -23.47480011 2.478399992 -11.3125
ltibia  -0 0 58.48680115
lfoot  6.958681002e-032 -17.92630005 -2.863049984
ltoes  -4.250644065 -19.5611806 -102.515957
